<svg xmlns="http://www.w3.org/2000/svg" xmlns:xlink="http://www.w3.org/1999/xlink" width="512" height="512" viewBox="0 0 512 512"><defs><clipPath id="a"><path d="M230.5,0C357.8,0,461,103.2,461,230.5S357.8,461,230.5,461,0,357.8,0,230.5,103.2,0,230.5,0Z" transform="translate(-1066 -258)" fill="#a3bbad"/></clipPath><clipPath id="c"><rect width="512" height="512"/></clipPath></defs><g id="b" clip-path="url(#c)"><path d="M230.5,0C357.8,0,461,103.2,461,230.5S357.8,461,230.5,461,0,357.8,0,230.5,103.2,0,230.5,0Z" transform="translate(26 32)" fill="none"/><path d="M230.5,522a232.2,232.2,0,0,1-46.454-4.683,229.238,229.238,0,0,1-82.421-34.683A231.173,231.173,0,0,1,18.114,381.221,229.346,229.346,0,0,1,4.683,337.954,233.064,233.064,0,0,1,2,261C17.076,375.019,115.309,461,230.5,461S443.924,375.019,459,261a233.065,233.065,0,0,1-2.683,76.954,229.238,229.238,0,0,1-34.683,82.421,231.173,231.173,0,0,1-101.413,83.511,229.345,229.345,0,0,1-43.267,13.431A232.2,232.2,0,0,1,230.5,522Z" transform="translate(26 -29)" fill="#b9d3d5"/><g transform="translate(1092 284)" clip-path="url(#a)"><path d="M0,0V231" transform="translate(-835.5 36.5)" fill="none" stroke="#707070" stroke-linecap="round" stroke-width="15"/><g transform="translate(-950.093 102.13)" fill="none" stroke-linecap="round"><path d="M114.527,0c11.547,33.084,114.918,24.975,114.566,153.87S177.8,307.739,114.527,307.739-3.965,284.652-.039,153.87,103.745,34.147,114.527,0Z" stroke="none"/><path d="M 114.9104614257813 23.6715087890625 C 107.7003860473633 29.40115356445313 98.70575714111328 33.8880615234375 89.43757629394531 38.51177978515625 C 57.32131958007813 54.5340576171875 17.35147094726563 74.47425842285156 14.95458984375 154.3197937011719 C 13.28558349609375 209.917724609375 22.76473999023438 248.7482147216797 43.12863159179688 269.7326354980469 C 58.56947326660156 285.6438903808594 80.58963012695313 292.7394714355469 114.5274276733398 292.7394714355469 C 162.5161590576172 292.7394714355469 213.7435760498047 282.0052490234375 214.0935363769531 153.8287811279297 C 214.3090057373047 74.89483642578125 173.1214752197266 54.451416015625 140.0267333984375 38.02490234375 C 130.9273071289063 33.50839233398438 122.0911102294922 29.12274169921875 114.9104614257813 23.6715087890625 M 114.5274276733398 0 C 126.0745849609375 33.08352661132813 229.4453125 24.97503662109375 229.0934753417969 153.8697357177734 C 228.7415771484375 282.764404296875 177.8004760742188 307.7394714355469 114.5274276733398 307.7394714355469 C 51.25431823730469 307.7394714355469 -3.964569091796875 284.6519470214844 -0.0386810302734375 153.8697357177734 C 3.887313842773438 23.0875244140625 103.7452697753906 34.1468505859375 114.5274276733398 0 Z" stroke="none" fill="#707070"/></g><g transform="translate(-1066 15.389)" fill="none" stroke-linecap="round"><path d="M230.5,0C253.332,88.288,462.233,16.714,461,254S357.8,508,230.5,508,0,490.648,0,254,209.807,87.31,230.5,0Z" stroke="none"/><path d="M 230.6711883544922 31.54598999023438 C 213.4306030273438 51.01217651367188 184.8947448730469 60.28109741210938 155.1747131347656 69.93353271484375 C 89.47061157226563 91.27276611328125 15 115.459228515625 15 254 C 15 475.8560791015625 104.3181457519531 493 230.5 493 C 355.9543151855469 493 444.8465576171875 475.8504638671875 446.0001525878906 253.9219970703125 C 446.7218627929688 115.0762939453125 372.5629272460938 91.24337768554688 307.1338500976563 70.216064453125 C 277.1022644042969 60.56463623046875 248.2766418457031 51.301025390625 230.6711883544922 31.54598999023438 M 230.5 0 C 253.3323211669922 88.28799438476563 462.2333984375 16.71383666992188 460.9999389648438 254 C 459.7665405273438 491.2861633300781 357.8015441894531 508 230.5 508 C 103.1983947753906 508 0 490.6481628417969 0 254 C 0 17.35177612304688 209.8074645996094 87.3099365234375 230.5 0 Z" stroke="none" fill="#707070"/></g></g><path d="M0,10.219C0,88.851,64.243,152.637,143.635,152.995q.362-5.063.364-10.219C144,64.144,79.757.358.364,0Q0,5.063,0,10.219Z" transform="translate(248 290.997) rotate(180)" fill="#a3bbad"/><path d="M0,142.776C0,64.144,64.243.358,143.635,0Q144,5.063,144,10.219C144,88.851,79.757,152.637.364,152.995Q0,147.931,0,142.776Z" transform="translate(265 138.003)" fill="#a3bbad"/><path d="M231,111a92.453,92.453,0,0,1,46-80.018,92.6,92.6,0,0,1,0,160.036A92.453,92.453,0,0,1,231,111Z" transform="translate(-21 35)" fill="#a3bbad"/><path d="M231,71.5a46.926,46.926,0,0,1,23-40.518,47.19,47.19,0,0,1,0,81.036A46.926,46.926,0,0,1,231,71.5Z" transform="translate(207.759 -109.496) rotate(45)" fill="#a3bbad"/><path d="M0,40.518A46.926,46.926,0,0,0,23,81.036,46.926,46.926,0,0,0,46,40.518,46.926,46.926,0,0,0,23,0,46.926,46.926,0,0,0,0,40.518Z" transform="translate(220.72 133.054) rotate(135)" fill="#a3bbad"/><path d="M0,40.518A46.926,46.926,0,0,0,23,81.036,46.926,46.926,0,0,0,46,40.518,46.926,46.926,0,0,0,23,0,46.926,46.926,0,0,0,0,40.518Z" transform="translate(291.892 305.28) rotate(-45)" fill="#a3bbad"/><path d="M0,40.518A46.926,46.926,0,0,1,23,0,46.926,46.926,0,0,1,46,40.518,46.926,46.926,0,0,1,23,81.036,46.926,46.926,0,0,1,0,40.518Z" transform="translate(163.419 362.581) rotate(-135)" fill="#a3bbad"/><path d="M0,40.518A46.926,46.926,0,0,0,23,81.036,46.926,46.926,0,0,0,46,40.518,46.926,46.926,0,0,0,23,0,46.926,46.926,0,0,0,0,40.518Z" transform="translate(144.324 249.667) rotate(90)" fill="#a3bbad"/><path d="M0,40.518A46.926,46.926,0,0,1,23,0,46.926,46.926,0,0,1,46,40.518,46.926,46.926,0,0,1,23,81.036,46.926,46.926,0,0,1,0,40.518Z" transform="translate(449.324 249.667) rotate(90)" fill="#a3bbad"/><g transform="translate(26 32)" fill="none"><path d="M230.5,0C357.8,0,461,103.2,461,230.5S357.8,461,230.5,461,0,357.8,0,230.5,103.2,0,230.5,0Z" stroke="none"/><path d="M 230.5 15 C 111.6729431152344 15 15 111.6729431152344 15 230.5 C 15 349.3270874023438 111.6729431152344 446 230.5 446 C 349.3270874023438 446 446 349.3270874023438 446 230.5 C 446 111.6729431152344 349.3270874023438 15 230.5 15 M 230.5 0 C 357.8016357421875 0 461 103.1983642578125 461 230.5 C 461 357.8016357421875 357.8016357421875 461 230.5 461 C 103.1983642578125 461 0 357.8016357421875 0 230.5 C 0 103.1983642578125 103.1983642578125 0 230.5 0 Z" stroke="none" fill="#707070"/></g><g transform="translate(26 32)" fill="none"><path d="M230.5,0C357.8,0,461,103.2,461,230.5S357.8,461,230.5,461,0,357.8,0,230.5,103.2,0,230.5,0Z" stroke="none"/><path d="M 230.5 15 C 111.6729431152344 15 15 111.6729431152344 15 230.5 C 15 349.3270874023438 111.6729431152344 446 230.5 446 C 349.3270874023438 446 446 349.3270874023438 446 230.5 C 446 111.6729431152344 349.3270874023438 15 230.5 15 M 230.5 0 C 357.8016357421875 0 461 103.1983642578125 461 230.5 C 461 357.8016357421875 357.8016357421875 461 230.5 461 C 103.1983642578125 461 0 357.8016357421875 0 230.5 C 0 103.1983642578125 103.1983642578125 0 230.5 0 Z" stroke="none" fill="#707070"/></g></g></svg>